<?xml version="1.0" encoding="utf-8"?>
<!-- Generator: Adobe Illustrator 16.0.0, SVG Export Plug-In . SVG Version: 6.00 Build 0)  -->
<!DOCTYPE svg PUBLIC "-//W3C//DTD SVG 1.1//EN" "http://www.w3.org/Graphics/SVG/1.1/DTD/svg11.dtd">
<svg version="1.1" id="レイヤー_1" xmlns="http://www.w3.org/2000/svg" xmlns:xlink="http://www.w3.org/1999/xlink" x="0px"
	 y="0px" width="24px" height="24px" viewBox="0 0 24 24" enable-background="new 0 0 24 24" xml:space="preserve">
<g>
	<path d="M11.728,1.62c0.078-0.066,0.16-0.099,0.249-0.099c0.088,0,0.165,0.033,0.231,0.099c0.065,0.066,0.098,0.144,0.098,0.232
		v10.09c0,0.178,0.09,0.254,0.266,0.232h10.089c0.088,0,0.153,0.044,0.198,0.132c0.065,0.066,0.101,0.143,0.101,0.232
		c0,0.066-0.04,0.137-0.116,0.213c-0.077,0.079-0.138,0.116-0.183,0.116H12.572c-0.176,0-0.266,0.077-0.266,0.232V23.19
		c0,0.088-0.033,0.165-0.098,0.23c-0.066,0.065-0.144,0.101-0.231,0.101c-0.089,0-0.171-0.035-0.249-0.101
		c-0.078-0.065-0.115-0.143-0.115-0.23V13.1c0-0.177-0.079-0.253-0.232-0.232H1.291c-0.088,0-0.155-0.033-0.199-0.099
		c-0.065-0.065-0.11-0.143-0.132-0.23c0-0.067,0.039-0.144,0.116-0.232s0.149-0.132,0.215-0.132h10.09
		c0.176,0,0.254-0.079,0.232-0.232V1.852C11.613,1.764,11.65,1.687,11.728,1.62z"/>
</g>
</svg>
